/* XPM */
static char * Untitled_xpm[] = {
"99 88 106 2",
"  	c None",
". 	c #5B5B5B",
"+ 	c #BBBBBB",
"@ 	c #7B7B7B",
"# 	c #3B3B3B",
"$ 	c #FFFEFF",
"% 	c #2D2D2D",
"& 	c #EFDBCF",
"* 	c #474747",
"= 	c #1F1F1F",
"- 	c #896331",
"; 	c #FFA665",
"> 	c #FDAE75",
", 	c #986836",
"' 	c #F79D61",
") 	c #FEC67B",
"! 	c #EC995B",
"~ 	c #805B2C",
"{ 	c #B27F44",
"] 	c #C6804B",
"^ 	c #CE8851",
"/ 	c #FFD385",
"( 	c #FFB886",
"_ 	c #9C7038",
": 	c #C88D4B",
"< 	c #D88A52",
"[ 	c #B98B4A",
"} 	c #4C3F19",
"| 	c #FFC8AD",
"1 	c #DE9258",
"2 	c #A87841",
"3 	c #372C16",
"4 	c #6E5327",
"5 	c #AA6D3E",
"6 	c #E9A466",
"7 	c #774F2B",
"8 	c #232323",
"9 	c #3E3614",
"0 	c #FEE1AA",
"a 	c #FFCE88",
"b 	c #CC9A58",
"c 	c #FEB27A",
"d 	c #584821",
"e 	c #2A280F",
"f 	c #B59774",
"g 	c #FAD6C0",
"h 	c #ECD19B",
"i 	c #CEDEDE",
"j 	c #D3E5E3",
"k 	c #D6EEE7",
"l 	c #C6DCD6",
"m 	c #BFD3D0",
"n 	c #BDCECC",
"o 	c #EFCBB5",
"p 	c #E0BF92",
"q 	c #E7FEF7",
"r 	c #ADC2BD",
"s 	c #ADBAB5",
"t 	c #B5CBC6",
"u 	c #9CABA7",
"v 	c #CC9E6A",
"w 	c #9A815A",
"x 	c #E7DFB5",
"y 	c #D6AC73",
"z 	c #A5B2AD",
"A 	c #94A39E",
"B 	c #848F8C",
"C 	c #8E6E45",
"D 	c #665C4C",
"E 	c #EAB267",
"F 	c #8C9A95",
"G 	c #737D7B",
"H 	c #6B7873",
"I 	c #5A5238",
"J 	c #8C9594",
"K 	c #7B8784",
"L 	c #63716B",
"M 	c #5A6563",
"N 	c #525A5A",
"O 	c #4A5552",
"P 	c #A5B7B5",
"Q 	c #42494A",
"R 	c #394342",
"S 	c #424E4A",
"T 	c #636C6B",
"U 	c #293130",
"V 	c #B5CFCE",
"W 	c #1F2424",
"X 	c #182121",
"Y 	c #292C29",
"Z 	c #494033",
"` 	c #3A3539",
" .	c #31393A",
"..	c #535D66",
"+.	c #52615D",
"@.	c #181D18",
"#.	c #73827B",
"$.	c #3C3B40",
"%.	c #5A6963",
"&.	c #22282B",
"*.	c #484D56",
"=.	c #292930",
"-.	c #282E33",
";.	c #373134",
">.	c #5A6C6B",
",.	c #363943",
"                                                                                                                                                                                                      ",
"                                                                                                  . + @ . #                                                                                           ",
"                                                                                                . + $ + @ . #                                                                                         ",
"                                                                                              % @ + & + @ . * %                                                                                       ",
"                                                                                              # @ + & + @ . * #                                                                                       ",
"                                                                                            % . @ + & + @ . * # %                                                                                     ",
"                                                                                            # . @ + & + @ . * # #                                                                                     ",
"                                                                                            # . @ + & + @ . * # #                                                                                     ",
"                                                                                            # . @ + & + @ . * # #                                                                                     ",
"                                                                                          % # . @ + & + @ . * # # %                                                                                   ",
"                                                                                          % # . @ + & + @ . * # # %                                                                                   ",
"                                                                                          % # . @ + & + @ . * # # %                                                                                   ",
"                                                                                      + $ % # @ + + @ + @ + + @ # % + .                                                                               ",
"                                                                                    @ @ + = % + $ $ @ . @ $ $ + % = @ @ .                                                                             ",
"                                                                                  @ . . @ = % + $ $ @ . @ $ $ + % = @ . @ *                                                                           ",
"                                                                                @ . . . @ = % $ & & @ . @ & & $ % = @ . . . *                                                                         ",
"                                                                                . * . . @ = % + @ @ @ . @ @ @ + % = @ . . . #                                                                         ",
"                                                                              # % # . . @ = % . . . . # . . . . % = @ . . * # %                                                                       ",
"                                                                              % % # . . @ = = # # # # # # # # # = = @ . . # # =                                                                       ",
"                                                                              = % # . . @ % % & + + + + + + + @ % = @ . . # # =                                                                       ",
"                                                                              = % # * . @ % % + @ @ @ @ @ @ @ . % = @ . * # % =                                                                       ",
"                                                                              = % # # . @ % % + @ @ @ @ @ @ @ . % = @ . # # = =                                                                       ",
"                                                                              = = # # . @ % % @ . . . . . . . . % = @ * # % = =                                                                       ",
"                                                                              = = # # * . % % = = = = = = = = = % = . # % = = =                                                                       ",
"                                                                              = = # # # . % # % % % % % % % % % # % # % = = = =                                                                       ",
"                                                                            - = = % # # * % # # # # # # # # # # # % # = = = = = ; ; > >                                                               ",
"                                                                          - , % = = # % # % # . . . . @ @ + @ . # % # = = = = = ' ' ) > !                                                             ",
"                                                                        ~ , { # = = % % = % # . . @ @ + + + + @ # % % = = = = = ] ^ ! / ( !                                                           ",
"                                                                      - _ { : # % = = % = % # + + + + $ $ $ $ + # % = = = % = = ~ _ < / / > >                                                         ",
"                                                                    , { [ : < . # = = % = % # # # # # # # # # # # % = = % # % = } ~ ! / | | / 1                                                       ",
"                                                                  , 2 [ ^ < 1 2 # % = % = % # = = = = = = = = = # % = = # # # 3 } 4 ! / | | / !                                                       ",
"                                                                  _ 2 [ ^ < 1 2 . # % = = % # = = = = = = = = = # % = % # # % 3 } ~ ' ) | | / (                                                       ",
"                                                                  2 5 { : 1 6 2 7 . # % = % # = = = = = = = = = # % = # # . 8 9 - ] ; > 0 0 | ( !                                                     ",
"                                                                , _ 2 ] 6 ( a ; b @ . # = % # % = = = = = = = % # % = # . # 9 - : 6 > 0 0 | 0 / (                                                     ",
"                                                                , 2 { 6 / ( c c ( 6 @ . = % * * # # # # # # # * * % = . # ~ 4 [ ! / | a ( ; | | ( 1                                                   ",
"                                                              , , 2 ! / a c ; ; ) a ; @ # * . . . . . . . . . . . # % # [ - - b ( / a c c ; > ) c !                                                   ",
"                                                              , _ ] ; ) > ! ! ! ; c / ; . . @ @ @ @ @ @ @ @ @ @ @ . # { _ , b / / ) c ' ' ! 1 ! ' ; ^                                                 ",
"                                                              _ ] 1 c ' ! < < < ! ' c ( ; @ + + + + + + + + + + + @ { - _ 1 / a c ' ' 1 1 ^ [ [ 1 ' ^                                                 ",
"                                                            5 : 1 ^ ! ! ^ ] ^ ^ 1 1 ' c / # # # # # # # # # # # # # , { 6 | | c ' ' ! < < < [ [ [ 1 ]                                                 ",
"                                                            : < < { { < [ 2 [ ^ 1 ! ! ; ( # # # # # # # # # # # # # < ! | a c ' ! ! < < < < ^ [ [ ] 5                                                 ",
"                                                            ^ ! 1 , ~ ] , , 5 [ [ ! ! ; / ) ! < ! > ] 5 , , - - ^ ' ! a ) > ! 1 < < [ ^ ^ < ^ [ { 5 -                                                 ",
"                                                            , 2 2 ~ d 4 d ~ - 5 { [ ! ; ) ! [ [ < 1 c ; ! b ] { < ' ) > ! ! < < ^ [ [ [ [ ^ { { 5 , -                                                 ",
"                                                          - , 4 4 d 9 e } 4 - - , { 1 ; ; [ [ [ ^ < ' ; c ; ; ! ! ! 1 < < ^ ^ ^ [ [ [ [ [ { 5 5 , - - -                                               ",
"                                                          - 2 , - d e 9 e 4 ~ - - , < ' ! : [ [ [ ^ 1 ! ' ; c ( ; ; ! < : : [ [ [ [ [ [ { 5 5 , , - - ~                                               ",
"                                                        - , { 5 _ - d } 9 9 e ~ - , < ! ! < : [ [ [ ^ < 1 ! ' > > > ' 1 < < [ [ [ [ [ { 5 2 , , - - - d                                               ",
"                                                        - 2 [ : : 2 ~ d } 9 9 e , , [ ! ' ' ! : [ [ [ [ ^ ^ 1 1 1 1 1 1 1 < < : : [ [ 5 2 , , - - ~ ~ d                                               ",
"                                                        , { : < 1 : 5 ~ d d d } 4 , { ! ; ; ' ! [ [ { { { { [ ^ ^ ^ ^ ^ ^ < < < < : [ 5 , , - - - 4 d d                                               ",
"                                                      - { < ! ' ; ' < 5 - ~ d d } , 5 ! c ; ; ' : [ 5 5 5 5 [ [ { [ [ [ [ ^ ^ 1 ! ' < 5 _ - - - - 4 d                                                 ",
"                                                      , < ! ; ; ; ( ; 1 ] 5 - 4 d 4 5 < ; ( ; ; < : 5 , , , 2 2 5 { [ [ [ [ ^ ^ ! ; ! < { - - - ~ d d                                                 ",
"                                                      { ' ; ( ( ( ( ( ; < ] 5 ~ d } , ^ ' / ( ; < ] , , , , 2 2 5 5 [ [ [ [ [ [ ^ ! 1 < ^ { , - 4 d d                                                 ",
"                                                    _ 1 ( ( / / ( ( ( ; ! < ] _ ~ } 4 [ ' / / ; < [ - - - , 2 2 5 5 [ : [ [ : : : < 1 1 [ [ 5 - d d d                                                 ",
"                                                    : > a a a a / / ( c ' ! ] 5 _ d } 2 1 ) a c < [ - - ~ - - _ 5 5 [ ^ ] [ ^ < 1 1 ! c 1 b 5 , d d                                                   ",
"                                                  f ( g g g g g h / / / ( ; < ] 5 ~ } 4 ] ' c ; 1 [ - - ~ ~ ~ - , { : : : : < < ! ! ' ; c a 6 { 4 d                                                   ",
"                                                i i j j k k k k l 0 0 h a ( 6 < 2 ~ d } 5 ] ' ' 1 [ - - 4 4 ~ , { [ < ! ! ! ' ' ' ; ; ; ; c a 6 _ d                                                   ",
"                                            k i m m n m k k k k i j i n o h p 1 ] - 4 } 4 , ^ 1 < [ _ - 4 4 _ 2 [ : ! ' ; ; ; ; ; ; ; ; ; ; ( | 6 4                                                   ",
"                                          q j i i n r m i k k i m n s s t r u v w , 4 d d d { { ^ [ 5 - 4 4 _ ^ < 6 6 > ( ( ( ( ( ( p | | | | | x y                                                   ",
"                                        q q k i n r r m i k i m n r s s u z A u B C D d } 9 4 ~ { { 5 ~ 4 } 4 { 1 E E E ( ( ( p h h r l j j k k k j n m                                               ",
"                                      q q k i n r r r m j k m n r s s s u F B G H H H I 9 9 } d ~ ~ ~ 4 4 9 } - { < < ! E p p r l l r r r n i k k t r n i k                                           ",
"                                    k q k i n r s r t l k i n r s s s s A J K H L M N N O 9       d d d d d 9 d ~ 2 ] v v r r z P P s s s r n i k l t r n i k                                         ",
"                                  q k i i n r r s r m j k m r s s s s u F B G H L M Q R S R           d d d 9 } d C w u F B K J A P s s s s r n i k l t r n i k                                       ",
"                                P k k i n r s s r t m k i n s s s s s u J K G H T M Q U U U             d d d 9 I H G H L H H K J u P s s s s r n i k l t r n i k                                     ",
"                                P m l V r s r r t m j k m r s s s s u F B H H H M O Q W X Y               d d Z T O S M L H H H K J A z s s s s r V i k l t r V i k                                   ",
"                              F z P r r s s r t V m j i m s s s s z A J K H H L M S R X X Y                 } N ` U Q M T L H H H K J A z s s s s r V i k l t r V i k                                 ",
"                              B F F A F A u u z P t t l V s s s s u F B G H H T M Q  .X X Y                  .` Y Y R ....T H H H G B J A z s s s s r V i k l t r m i k                               ",
"                            H H H N N N +.H H K B u z P P s s s z A J K G H H M N Q U X X Z                  .W Y Y  .O N M L H H H K B J A z P s s s r V i i V r t t l k                             ",
"                          H H M M N Q R R R Q N M G B A A z s z A J K H H H T +.S R W X Y                    .@.W Y  .S O M T H H H G K B J A z s s s z z s r u u u u u m                             ",
"                      H G G H H H H N Q  . . .Q S N L K K F u A F K G H H H M N Q  .X X Y                    .@.@.Y  .Q O ..M L H H H G K B J A u u u F K G G G G G G K u z                           ",
"                    H K H #.B B B B #.H N Q S O O M M T T H K B B G H H H L M O $.U X X Y                    .@.@.Y  .Q O N M L H H H H G K B J B K G L T M M M M %.T H F u r                         ",
"                  H B H H B B A u u A B #.T N T H K H H T T %.L H H H H L T +.R R  .&.X Y                    .@.@.Y  .Q O N M T L H H H H H K K H T M M %.T T T %.L H K u s m r                       ",
"                  B K T H K J A z s z A B #.%.H K F u A K H O Q %.%.T H L N *.Y N S  .X Z                    .W U R ` Q S O ..M T T L L L T T L T T H H H H H H T %.L #.K u r m r                     ",
"                #.J L N N T K B A z z z u B H H H B z z z z +.Y R N +.%.M S R Y Q R =.Y                      . .O N Y R Q S O ..+...+...M T T K F A z z A K K H %.N N N S N G u z z                   ",
"                F B N S Q S M H B B A z z u F K H G A s s l #.+.@.Q O O S Q  .Y -.=.X Y                      .Y Q Q Y U R R S N O S S N T B F t l l t P F #.H L %.+.N N *.S Q O H B z                 ",
"                J G S Q R R N T H H G K B z u F B H B s n i A L Y @.Q S Q R U Y X X @.Y                      .@.Y -.W Y U  .Q *.Q R  .T K s l j t F H N N O O N N M M M N O Q  .O H J                 ",
"                B M Q R  . .N L L L %.L T K A A K N H A n t u #.O Y Y U R  .Y Y X X @.Y                      .@.@.X X Y Y  .R U Y Y O #.u t n A H N N S S N N M %.L L L N S Q Q R M B                 ",
"              u K N Q  . . .Q N N %.T L %.L G K H Q N T K A u F %.;.@.@.U U Y Y X X @.Y                      .@.@.X X Y Y U U @.@.;.%.F u A K T N Q R Q O M %.L T %.N N O S S S O N K u               ",
"            z B H +.S R  . .R Q S O N T L H T H T  .R S N L B J H O Y @.W Y Y Y X @.@.Y                     Z W @.@.X Y Y Y W @.Y O H J B L N S R  .Q N T H L T N O O O O O O O O +.H B z             ",
"          k u J K H M +.O R R  .R S O N >.H K K H +.S R R N L K B M U Y @.W U U X @.W Z                       Z W @.X U U W @.Y U M B K L N R R S +.H K K H >.N O O O O O O N +.M H K J u k           ",
"        k l P A J K K H T +.N R R Q S O N >.K B J K G O R R N L K L *.U Y @.W U U W Z                           Z W U U W @.Y U *.L K L N R R O G K J B K >.N O O O O O N +.T H K K J A P l k         ",
"      q i i t s z P A K #.L M N O S S S O N H #.J A A B G O O M H H N  .U Y @.W  .Z                               Z  .W @.Y U  .N H H M O O G B A A J #.H N O O O O O N M L #.K A P z s t i i q       ",
"      k l r A u P r r z A B H T N N O S O O N >.#.A u z z F M N >.H N  . .Y Y @. .                                   .@.Y Y  . .N H >.N M F z z u A #.>.N O O O O N N T H B A z r r P u A r l k       ",
"    s k P H N L #.B u s P P A K T %.N O N O O N H K J u r r F H N H O  . .Y Y @. .                                   .@.Y Y  . .O H N H F r r z A #.>.N O O O O N %.T K A P P s u B #.L N H P k s     ",
"    r i A R Q N >.H K K A P z u K L %.N +.+.N O T H H K u A u P H M S  . .Y Y @. .                                   .@.Y Y  . .S M H P r r P A #.>.N O O O O N %.L K u z P A K K H >.N Q R A i r     ",
"    r i J  .R S N M >.H B A u z u K L M N >.L +.O N >.H H H T u A G S  . .Y Y @. .                                   .@.Y Y  . .S #.s r r r A #.>.N O O O O N M L K u z u A B H >.M N S R  .J i r     ",
"    n t K ,.S N +.M N >.H B A u s A H %.N M G #.M O N L H %.R N #.K N R  .U Y @. .                                   .@.Y U  .R G P t z r u K L N O O O O N N %.H A s u A B H >.N M +.N S ,.K t n     ",
"  m i A H +.H G G L N N >.H F A z u K L M M H F K M O >.H G N  .S M M N R  .Y @. .                                   .@.Y  .R T z t A A z J H >.O O O O O N M L K u z A F H >.N N L G G H +.H A i m   ",
"m k n J G B A A A K L O %.H F A u A B H %.M L F u K O M L K G R U R N M N  .Y @. .                                   .@.Y  .N K t t K J A K L M O O S O O N %.H B A u A F H %.O L K A A A B G J n k m ",
"                                                                                                                                                                                                      ",
"                                                                                                                                                                                                      "};
